<svg id="Capa_1" enable-background="new 0 0 512 512" height="512" viewBox="0 0 512 512" width="512" xmlns="http://www.w3.org/2000/svg"><g><path d="m256 0-20.016 256 20.016 256c141.385 0 256-114.615 256-256s-114.615-256-256-256z" fill="#e1ebf0"/><path d="m0 256c0 49.989 14.344 96.621 39.119 136.033l-7.226 88.074 88.074-7.226c39.412 24.775 86.044 39.119 136.033 39.119v-512c-141.385 0-256 114.615-256 256z" fill="#fff5f5"/><path d="m256 50.04-21.442 225.976 227.402-20.016c0-113.567-92.393-205.96-205.96-205.96z" fill="#515be0"/><path d="m461.96 256h-225.976l47.016 75.667 118.568 69.901c37.294-37.295 60.392-88.785 60.392-145.568z" fill="#ffde55"/><path d="m256 256-20.016 89.667 20.016 116.293c56.783 0 108.273-23.098 145.568-60.393z" fill="#009986"/><path d="m110.433 401.568c37.294 37.294 88.784 60.392 145.567 60.392v-205.96l-81 37.667z" fill="#00cc76"/><path d="m256 50.04c-113.567 0-205.96 92.393-205.96 205.96 0 56.783 23.098 108.273 60.392 145.568l145.568-145.568z" fill="#4895ff"/></g></svg>