<svg id="Capa_1" enable-background="new 0 0 512 512" height="512" viewBox="0 0 512 512" width="512" xmlns="http://www.w3.org/2000/svg"><g><path d="m147.348 458.735c-70.259 70.259-144.872 50.789-144.872 50.789l76.849-107.674 77.704-46.88c25.981 25.981 21.646 72.438-9.681 103.765z" fill="#ffb655"/><path d="m53.265 364.652c-70.255 70.255-50.792 144.862-50.789 144.872l154.554-154.554c-25.981-25.98-72.438-21.645-103.765 9.682z" fill="#ffde55"/><path d="m261.028 393.798 45.103 45.103 44.191-44.191c24.91-24.91 24.91-65.296 0-90.206l-58.8 30.493z" fill="#ff5b5b"/><path d="m118.202 250.971-45.103-45.103 44.191-44.191c24.91-24.91 65.296-24.91 90.206 0l-30.493 58.8z" fill="#ff8859"/><path d="m167.064 316.629-22.552 50.859 48.862 48.862 22.551-22.552z" fill="#b4d2d7"/><path d="m118.202 296.074-22.552 22.552 48.862 48.862 36.705-36.705z" fill="#e1ebf0"/><path d="m215.925 393.798 22.552-22.552-48.862-77.168-22.551 50.858z" fill="#87a0af"/><path d="m203.769 308.231-63.016-34.708-22.551 22.551 48.862 48.862z" fill="#b4d2d7"/><path d="m512 0-99.72 71.413 99.72 71.414z" fill="#ff5b5b"/><path d="m369.173 0 57.26 85.567 85.567-85.567z" fill="#ff8859"/><path d="m512 142.827-71.413-71.414-85.567 57.26-158.328 186.635 3.529 17.684 60.807 60.806z" fill="#e1ebf0"/><path d="m369.173 0-250.971 250.971 60.806 60.807 17.684 3.53 243.895-243.895z" fill="#fff5f5"/><path d="m168.788 257.105h142.214v30h-142.214z" fill="#ff5b5b" transform="matrix(.707 -.707 .707 .707 -122.144 249.329)"/><path d="m412.28 185.933c23.807-23.807 23.807-62.406 0-86.213l-57.26 28.953-28.953 57.26c23.807 23.807 62.406 23.807 86.213 0z" fill="#495959"/><path d="m326.067 99.72c-23.807 23.807-23.807 62.406 0 86.213l86.213-86.213c-23.807-23.807-62.406-23.807-86.213 0z" fill="#607882"/><path d="m391.067 164.72c12.072-12.072 12.072-31.714 0-43.786l-36.047 7.739-7.74 36.046c12.072 12.073 31.715 12.072 43.787.001z" fill="#4895ff"/><path d="m347.281 120.933c-12.072 12.072-12.072 31.714 0 43.786l43.786-43.786c-12.073-12.071-31.715-12.072-43.786 0z" fill="#7ed8f6"/></g></svg>