<svg id="Capa_1" enable-background="new 0 0 512 512" height="512" viewBox="0 0 512 512" width="512" xmlns="http://www.w3.org/2000/svg"><g><path d="m256 99.046-59.531 20.016c-26.099-44.778 10.008-69.539 10.008-69.539h49.523z" fill="#ffb655"/><path d="m256 398.166-59.531 20.016c-26.099-44.778 10.008-69.539 10.008-69.539h49.523z" fill="#c38778"/><path d="m90.048 120.072h-30v-80.04h110.92v30h-80.92z" fill="#b4d2d7"/><path d="m451.952 120.072h-30v-50.04h-80.92v-30h110.92z" fill="#87a0af"/><path d="m451.952 471.968h-90.904v-30h60.904v-50.04h30z" fill="#87a0af"/><path d="m150.952 471.968h-90.904v-80.04h30v50.04h60.904z" fill="#b4d2d7"/><path d="m256 76.035-23.011 73.427 23.011 63.419h74.285v-62.561c0-41.027-33.259-74.285-74.285-74.285z" fill="#e50058"/><path d="m256 76.035c-41.026 0-74.285 33.258-74.285 74.285v62.561h74.285z" fill="#ff5b5b"/><path d="m74.285 225.594-23.012 73.427 23.011 63.419h74.285v-62.561c0-41.026-33.258-74.285-74.284-74.285z" fill="#ffb655"/><path d="m74.285 225.594c-41.027 0-74.285 33.259-74.285 74.285v62.561h74.285z" fill="#ffde55"/><path d="m74.285 149.56-23.011 70.543 23.011 28.503c27.351 0 49.523-22.172 49.523-49.523s-22.173-49.523-49.523-49.523z" fill="#a65d4e"/><path d="m24.762 199.083c0 27.351 22.172 49.523 49.523 49.523v-99.046c-27.351 0-49.523 22.172-49.523 49.523z" fill="#c38778"/><path d="m437.715 225.594-23.012 73.427 23.011 63.419h74.286v-62.561c0-41.026-33.258-74.285-74.285-74.285z" fill="#515be0"/><path d="m437.715 225.594c-41.026 0-74.285 33.258-74.285 74.285v62.561h74.285z" fill="#4895ff"/><path d="m256 375.154-23.011 73.427 23.011 63.419h74.285v-62.561c0-41.027-33.259-74.285-74.285-74.285z" fill="#009986"/><path d="m256 375.154c-41.026 0-74.285 33.258-74.285 74.285v62.561h74.285z" fill="#00cc76"/><path d="m256 299.119-20.016 69.539 69.539-20.016c0-27.35-22.172-49.523-49.523-49.523z" fill="#a65d4e"/><path d="m256 299.119c-27.351 0-49.523 22.172-49.523 49.523l49.523 20.016z" fill="#c38778"/><path d="m256 398.166c27.351 0 49.523-22.172 49.523-49.523h-49.523l-20.016 26.511z" fill="#ffcdbe"/><path d="m206.477 348.642c0 27.351 22.172 49.523 49.523 49.523v-49.523z" fill="#ffdecf"/><path d="m256 0-20.016 69.539 69.539-20.016c0-27.351-22.172-49.523-49.523-49.523z" fill="#ff8859"/><path d="m256 0c-27.351 0-49.523 22.172-49.523 49.523l49.523 20.016z" fill="#ffb655"/><path d="m256 99.046c27.351 0 49.523-22.172 49.523-49.523h-49.523l-20.016 26.511z" fill="#ffcdbe"/><path d="m206.477 49.523c0 27.351 22.172 49.523 49.523 49.523v-49.523z" fill="#ffdecf"/><path d="m437.715 149.56c23.922 0 43.882 16.962 48.511 39.515l-68.527 20.016z" fill="#323c3c"/><path d="m437.715 149.56c-23.922 0-43.882 16.962-48.511 39.515l48.511 20.016z" fill="#495959"/><path d="m486.226 189.075c.663 3.232 1.012 6.579 1.012 10.008 0 27.351-22.172 49.523-49.523 49.523l-20.016-29.766 20.016-29.766h48.511z" fill="#e3a76f"/><path d="m389.205 189.075c-.663 3.232-1.012 6.579-1.012 10.008 0 27.351 22.172 49.523 49.523 49.523v-59.531z" fill="#f2d1a5"/></g></svg>