<svg id="Capa_1" enable-background="new 0 0 512 512" height="512" viewBox="0 0 512 512" width="512" xmlns="http://www.w3.org/2000/svg"><g><path d="m170.54 103.936h30v60.048h-30z" fill="#fff5f5" transform="matrix(.866 -.5 .5 .866 -42.122 110.716)"/><g fill="#e1ebf0"><path d="m296.436 118.96h60.048v30h-60.048z" transform="matrix(.5 -.866 .866 .5 47.216 349.701)"/><path d="m366.896 241h60.048v30h-60.048z"/><path d="m311.46 348.016h30v60.048h-30z" transform="matrix(.866 -.5 .5 .866 -145.281 213.873)"/></g><path d="m155.516 363.04h60.048v30h-60.048z" fill="#fff5f5" transform="matrix(.5 -.866 .866 .5 -234.623 349.7)"/><path d="m85.056 241h60.048v30h-60.048z" fill="#fff5f5"/><ellipse cx="153.014" cy="77.623" fill="#00cc76" rx="50.028" ry="50.028" transform="matrix(.987 -.16 .16 .987 -10.458 25.512)"/><path d="m358.986 27.595c-27.586 0-50.028 22.442-50.028 50.028s22.442 50.028 50.028 50.028c27.585 0 50.027-22.442 50.027-50.028s-22.442-50.028-50.027-50.028z" fill="#009986"/><path d="m461.972 205.972c-27.585 0-50.027 22.442-50.027 50.028s22.442 50.028 50.027 50.028c27.586 0 50.028-22.443 50.028-50.028s-22.442-50.028-50.028-50.028z" fill="#009986"/><path d="m358.986 384.349c-27.586 0-50.028 22.442-50.028 50.028s22.442 50.028 50.028 50.028c27.585 0 50.027-22.442 50.027-50.028s-22.442-50.028-50.027-50.028z" fill="#009986"/><ellipse cx="153.014" cy="434.377" fill="#00cc76" rx="50.028" ry="50.028" transform="matrix(.987 -.16 .16 .987 -67.604 30.119)"/><ellipse cx="50.028" cy="256" fill="#00cc76" rx="50.028" ry="50.028" transform="matrix(.383 -.924 .924 .383 -205.63 204.253)"/><path d="m153.014 97.651c-11.043 0-20.028-8.984-20.028-20.028s8.985-20.028 20.028-20.028 20.028 8.984 20.028 20.028-8.984 20.028-20.028 20.028z" fill="#a5e887"/><path d="m358.986 97.651c-11.044 0-20.028-8.984-20.028-20.028s8.984-20.028 20.028-20.028c11.043 0 20.027 8.984 20.027 20.028s-8.984 20.028-20.027 20.028z" fill="#00cc76"/><path d="m461.972 276.028c-11.043 0-20.027-8.984-20.027-20.028s8.984-20.028 20.027-20.028c11.044 0 20.028 8.984 20.028 20.028s-8.984 20.028-20.028 20.028z" fill="#00cc76"/><path d="m358.986 454.405c-11.044 0-20.028-8.984-20.028-20.028s8.984-20.028 20.028-20.028c11.043 0 20.027 8.984 20.027 20.028s-8.984 20.028-20.027 20.028z" fill="#00cc76"/><path d="m153.014 454.405c-11.043 0-20.028-8.984-20.028-20.028s8.985-20.028 20.028-20.028 20.028 8.984 20.028 20.028-8.984 20.028-20.028 20.028z" fill="#a5e887"/><path d="m50.028 276.028c-11.044 0-20.028-8.985-20.028-20.028s8.984-20.028 20.028-20.028 20.028 8.985 20.028 20.028-8.985 20.028-20.028 20.028z" fill="#a5e887"/><path d="m381.896 256c0-69.419-56.476-125.896-125.896-125.896l-20.016 125.896 20.016 125.896c69.42 0 125.896-56.477 125.896-125.896z" fill="#b4d2d7"/><path d="m256 130.104c-69.419 0-125.896 56.477-125.896 125.896s56.477 125.896 125.896 125.896z" fill="#e1ebf0"/><path d="m351.896 256c0-52.877-43.018-95.896-95.896-95.896l-20.016 159.847h91.417c15.224-16.981 24.495-39.404 24.495-63.951z" fill="#e1ebf0"/><path d="m256 160.104c-52.877 0-95.896 43.019-95.896 95.896 0 24.547 9.271 46.97 24.496 63.951h71.4z" fill="#fff5f5"/><path d="m327.397 319.947c-8.901-31.052-37.484-53.784-71.396-53.784l-23.011 73.427 3.761 10.365c6.221 1.273 12.659 1.942 19.25 1.942 28.329-.001 53.825-12.353 71.396-31.95z" fill="#515be0"/><path d="m184.604 319.947c17.57 19.597 43.066 31.949 71.396 31.949v-85.733c-33.912 0-62.495 22.733-71.396 53.784z" fill="#4895ff"/><path d="m256 190.128-23.011 70.543 23.011 28.503c27.351 0 49.523-22.172 49.523-49.523s-22.172-49.523-49.523-49.523z" fill="#e3a76f"/><path d="m206.477 239.651c0 27.351 22.172 49.523 49.523 49.523v-99.046c-27.351 0-49.523 22.172-49.523 49.523z" fill="#f2d1a5"/></g></svg>