<svg id="Capa_1" enable-background="new 0 0 512 512" height="512" viewBox="0 0 512 512" width="512" xmlns="http://www.w3.org/2000/svg"><g><path d="m474.972 208.161c-5.747-26.429-16.144-51.122-30.312-73.167l26.186-26.186-67.655-67.655-26.185 26.187c-22.044-14.168-46.737-24.564-73.166-30.312v-37.028h-47.84l-20.016 140.057 20.016 63.735c28.788 0 52.208 23.42 52.208 52.208s-23.42 52.208-52.208 52.208l-20.016 63.735 20.016 140.057h47.839v-37.028c26.429-5.747 51.122-16.144 73.166-30.312l26.186 26.186 67.655-67.655-26.186-26.186c14.168-22.044 24.564-46.737 30.312-73.167h37.028v-95.678h-37.028z" fill="#495959"/><circle cx="256" cy="256" fill="#fff" r="52.208"/><path d="m203.792 256c0-28.788 23.42-52.208 52.208-52.208v-203.792h-47.839v37.028c-26.429 5.747-51.123 16.144-73.167 30.312l-26.186-26.186-67.655 67.655 26.186 26.186c-14.168 22.044-24.564 46.737-30.312 73.167h-37.027v95.678h37.028c5.747 26.429 16.144 51.123 30.312 73.167l-26.186 26.186 67.655 67.655 26.186-26.186c22.044 14.168 46.737 24.564 73.167 30.312v37.026h47.838v-203.792c-28.788 0-52.208-23.42-52.208-52.208z" fill="#607882"/><path d="m371.943 256c0-63.93-52.012-115.942-115.943-115.942l-10.008 14.276 10.008 15.723c47.389 0 85.943 38.554 85.943 85.942 0 47.389-38.554 85.943-85.943 85.943l-10.008 15.126 10.008 14.875c63.931 0 115.943-52.013 115.943-115.943z" fill="#b4d2d7"/><path d="m256 341.943c-47.389 0-85.942-38.554-85.942-85.943s38.554-85.942 85.942-85.942v-30c-63.931 0-115.942 52.012-115.942 115.942 0 63.931 52.012 115.943 115.942 115.943z" fill="#e1ebf0"/></g></svg>