<svg id="Capa_1" enable-background="new 0 0 512 512" height="512" viewBox="0 0 512 512" width="512" xmlns="http://www.w3.org/2000/svg"><g><path d="m256 126.101-10.008 15.566 10.008 14.434h60.06v45.047h30v-75.047z" fill="#323c3c"/><path d="m165.94 126.101v75.047h30v-45.047h60.06v-30z" fill="#495959"/><path d="m256 186.148-20.016 212.966 276.016-20.016v-192.95z" fill="#515be0"/><path d="m256 186.148h-256v192.95l256 20.016z" fill="#4895ff"/><path d="m256 512h256v-132.902h-256l-20.016 45.024z" fill="#4895ff"/><path d="m0 379.098h256v132.902h-256z" fill="#7ed8f6"/><path d="m316.036 334.074h-60.036l-20.016 45.024 20.016 45.024h60.036z" fill="#ffde55"/><path d="m195.964 334.074h60.036v90.048h-60.036z" fill="#fff79f"/><g fill="#00cc76"><path d="m241 0h30v60.072h-30z"/><path d="m129.611 33.703h30v60.072h-30z" transform="matrix(.707 -.707 .707 .707 -2.715 120.923)"/><path d="m337.353 48.739h60.072v30h-60.072z" transform="matrix(.707 -.707 .707 .707 62.536 278.452)"/></g><path d="m256 364.074h30.036v30.048h-30.036z" fill="#ffb655"/><path d="m225.964 364.074h30.036v30.048h-30.036z" fill="#ffde55"/></g></svg>