<svg id="Capa_1" enable-background="new 0 0 512 512" height="512" viewBox="0 0 512 512" width="512" xmlns="http://www.w3.org/2000/svg"><g><path d="m383.571 100.972c-70.929 0-128.429 57.5-128.429 128.429 0 35.465 14.375 67.572 37.616 90.813l90.813 90.813 90.813-90.813c23.241-23.241 37.616-55.348 37.616-90.813 0-70.929-57.5-128.429-128.429-128.429z" fill="#4895ff"/><circle cx="383.571" cy="229.401" fill="#e1ebf0" r="79.695"/><circle cx="383.571" cy="229.401" fill="#b4d2d7" r="49.695"/><path d="m128.429 100.972c-70.929 0-128.429 57.5-128.429 128.429 0 35.465 14.375 67.572 37.616 90.813l90.813 90.813 90.813-90.813c23.241-23.241 37.616-55.348 37.616-90.813 0-70.929-57.499-128.429-128.429-128.429z" fill="#00cc76"/><circle cx="128.429" cy="229.401" fill="#fff5f5" r="79.695"/><circle cx="128.429" cy="229.401" fill="#e1ebf0" r="49.695"/><path d="m256 100.972-20.016 128.428 20.016 181.628 90.813-90.813c23.241-23.241 37.616-55.348 37.616-90.813 0-70.93-57.5-128.43-128.429-128.43z" fill="#ff5b5b"/><path d="m127.571 229.401c0 35.465 14.375 67.572 37.616 90.813l90.813 90.814v-310.056c-70.929 0-128.429 57.5-128.429 128.429z" fill="#ff8859"/><path d="m256 149.706-20.016 79.695 20.016 79.696c43.944 0 79.694-35.751 79.694-79.695s-35.75-79.696-79.694-79.696z" fill="#e1ebf0"/><path d="m176.306 229.401c0 43.944 35.75 79.695 79.694 79.695v-159.39c-43.944 0-79.694 35.751-79.694 79.695z" fill="#fff5f5"/><path d="m256 179.706-20.016 49.695 20.016 49.696c27.401 0 49.694-22.293 49.694-49.695s-22.293-49.696-49.694-49.696z" fill="#b4d2d7"/><path d="m206.306 229.401c0 27.402 22.293 49.695 49.694 49.695v-99.391c-27.401.001-49.694 22.294-49.694 49.696z" fill="#e1ebf0"/></g></svg>