<svg id="Capa_1" enable-background="new 0 0 512 512" height="512" viewBox="0 0 512 512" width="512" xmlns="http://www.w3.org/2000/svg"><g><path d="m256 0-20.016 212.077 20.016 299.923 149.961-149.961c38.378-38.378 62.116-91.398 62.116-149.961 0-117.128-94.95-212.078-212.077-212.078z" fill="#e50058"/><path d="m43.923 212.077c0 58.564 23.737 111.583 62.116 149.961l149.961 149.962v-512c-117.127 0-212.077 94.95-212.077 212.077z" fill="#ff5b5b"/><path d="m256 49.563-20.016 162.514 20.016 162.514c89.61 0 162.514-72.903 162.514-162.514 0-89.61-72.904-162.514-162.514-162.514z" fill="#b4d2d7"/><path d="m93.486 212.077c0 89.611 72.903 162.514 162.514 162.514v-325.028c-89.611 0-162.514 72.904-162.514 162.514z" fill="#e1ebf0"/><path d="m256 79.563-20.016 245.012 94.271-2.793c35.133-23.856 58.258-64.131 58.258-109.705.001-73.068-59.445-132.514-132.513-132.514z" fill="#e1ebf0"/><path d="m123.486 212.077c0 45.574 23.126 85.848 58.259 109.705l74.255 2.793v-245.012c-73.068 0-132.514 59.446-132.514 132.514z" fill="#fff5f5"/><path d="m256 229.747-59.531 20.016c-26.099-44.778 10.008-69.539 10.008-69.539h49.523z" fill="#495959"/><path d="m256 206.735-23.011 73.427 20.18 64.393c.942.02 1.884.036 2.831.036 27.53 0 53.097-8.397 74.285-22.767v-40.804c0-41.027-33.259-74.285-74.285-74.285z" fill="#515be0"/><path d="m181.715 281.02v40.805c21.188 14.369 46.755 22.766 74.284 22.766v-137.856c-41.025 0-74.284 33.258-74.284 74.285z" fill="#4895ff"/><path d="m256 130.7-20.016 69.539 69.539-20.016c0-27.35-22.172-49.523-49.523-49.523z" fill="#323c3c"/><path d="m256 130.7c-27.351 0-49.523 22.172-49.523 49.523l49.523 20.017z" fill="#495959"/><path d="m256 229.747c27.351 0 49.523-22.172 49.523-49.523h-49.523l-20.016 26.511z" fill="#e3a76f"/><path d="m206.477 180.223c0 27.351 22.172 49.523 49.523 49.523v-49.523z" fill="#f2d1a5"/></g></svg>