<svg id="Capa_1" enable-background="new 0 0 512 512" height="512" viewBox="0 0 512 512" width="512" xmlns="http://www.w3.org/2000/svg"><g><path d="m384.429 0h-192.214l-20.016 241 20.016 271h192.214z" fill="#e1ebf0"/><path d="m0 0h192.215v512h-192.215z" fill="#fff5f5"/><path d="m475.103 448.215 36.897-40.032-56.913-20.016z" fill="#00cc76"/><path d="m438.207 408.183 36.896 40.032v-60.048z" fill="#a5e887"/><path d="m475.103 63.785-20.016 107.555 56.913-20.016v-87.539z" fill="#009986"/><path d="m475.103 63.785h-36.896v87.539l36.896 20.016z" fill="#00cc76"/><path d="m455.087 211.372 56.913-20.016v-40.032h-36.897z" fill="#b4d2d7"/><path d="m475.103 151.324h-36.896v40.032l36.896 20.016z" fill="#e1ebf0"/><path d="m475.103 408.183h36.897v-216.827h-36.897l-20.016 101.852z" fill="#009986"/><path d="m438.207 191.356h36.897v216.826h-36.897z" fill="#00cc76"/><path d="m288.789 49h-96.574l-10.008 14.785 10.008 15.215h96.574z" fill="#495959"/><path d="m336.628 113h-144.413l-10.008 15 10.008 15h144.413z" fill="#495959"/><path d="m336.628 207v-30h-144.413l-10.008 15 10.008 15z" fill="#495959"/><path d="m336.628 271v-30h-144.413l-10.008 15 10.008 15z" fill="#495959"/><path d="m336.628 335v-30h-144.413l-10.008 15 10.008 15z" fill="#495959"/><path d="m336.628 399v-30h-144.413l-10.008 15 10.008 15z" fill="#495959"/><g fill="#607882"><path d="m47.801 177h47.839v30h-47.839z"/><path d="m47.801 241h47.839v30h-47.839z"/><path d="m47.801 305h47.839v30h-47.839z"/><path d="m47.801 369h47.839v30h-47.839z"/><path d="m95.64 49h96.574v30h-96.574z"/><path d="m47.801 113h144.414v30h-144.414z"/><path d="m127.533 177h64.681v30h-64.681z"/><path d="m127.533 241h64.681v30h-64.681z"/><path d="m127.533 305h64.681v30h-64.681z"/><path d="m127.533 369h64.681v30h-64.681z"/></g></g></svg>