<svg id="Capa_1" enable-background="new 0 0 512 512" height="512" viewBox="0 0 512 512" width="512" xmlns="http://www.w3.org/2000/svg"><g><path d="m145.936 398.166-59.531 20.016c-26.099-44.778 10.008-69.539 10.008-69.539h49.523z" fill="#495959"/><path d="m145.936 375.154-23.011 73.427 23.011 63.419h74.285v-62.561c0-41.027-33.259-74.285-74.285-74.285z" fill="#e50058"/><path d="m145.936 375.154c-41.026 0-74.285 33.258-74.285 74.285v62.561h74.285z" fill="#ff5b5b"/><path d="m145.936 299.119-20.016 69.539 69.539-20.016c0-27.35-22.172-49.523-49.523-49.523z" fill="#323c3c"/><path d="m145.936 299.119c-27.351 0-49.523 22.172-49.523 49.523l49.523 20.016z" fill="#495959"/><path d="m145.936 398.166c27.351 0 49.523-22.172 49.523-49.523h-49.523l-20.016 23.366z" fill="#e3a76f"/><path d="m96.413 348.642c0 27.351 22.172 49.523 49.523 49.523v-49.523z" fill="#f2d1a5"/><path d="m256 0-20.016 100.062 20.016 130.098h60.772l49.292 40.31 49.292-40.31h96.644v-230.16z" fill="#ffde55"/><path d="m366.064 375.154-23.011 73.427 23.011 63.419h74.285v-62.561c0-41.027-33.259-74.285-74.285-74.285z" fill="#515be0"/><path d="m366.064 375.154c-41.026 0-74.285 33.258-74.285 74.285v62.561h74.285z" fill="#4895ff"/><path d="m366.064 299.119-23.011 70.543 23.011 28.503c27.351 0 49.523-22.172 49.523-49.523 0-27.35-22.172-49.523-49.523-49.523z" fill="#ffcdbe"/><path d="m316.541 348.642c0 27.351 22.172 49.523 49.523 49.523v-99.046c-27.351 0-49.523 22.173-49.523 49.523z" fill="#ffdecf"/><path d="m0 0v230.16h96.644l49.292 40.31 49.292-40.31h60.772v-230.16z" fill="#fff79f"/><path d="m452 70.056h-196l-10.008 15 10.008 15h196z" fill="#495959"/><path d="m452 130.104h-196l-10.008 15 10.008 15h196z" fill="#495959"/><g fill="#607882"><path d="m60 70.056h196v30h-196z"/><path d="m60 130.104h196v30h-196z"/></g></g></svg>