<svg id="Capa_1" enable-background="new 0 0 512 512" height="512" viewBox="0 0 512 512" width="512" xmlns="http://www.w3.org/2000/svg"><g><path d="m474.792 95.678-67.855-27.823-27.823-67.855h-123.114l-20.016 270.883 20.016 241.117h218.792z" fill="#e1ebf0"/><path d="m37.208 0h218.792v512h-218.792z" fill="#fff5f5"/><path d="m474.792 95.678h-95.678v-95.678z" fill="#fff5f5"/><path d="m287.867 437.584v-89.687l-51.883-20.016 20.016 109.703z" fill="#4895ff"/><path d="m224.133 437.584h31.867v-109.703l-31.867 20.016z" fill="#7ed8f6"/><path d="m256 129.39-20.016 111.573 20.016 111.573c61.522 0 111.574-50.052 111.574-111.574s-50.052-111.572-111.574-111.572z" fill="#515be0"/><path d="m144.426 240.963c0 61.522 50.052 111.574 111.574 111.574v-223.147c-61.522 0-111.574 50.051-111.574 111.573z" fill="#4895ff"/><path d="m337.573 240.963c0-44.979-36.594-81.572-81.573-81.572l-20.016 81.573 20.016 81.572c44.979 0 81.573-36.594 81.573-81.573z" fill="#4895ff"/><path d="m174.427 240.963c0 44.979 36.594 81.573 81.573 81.573v-163.145c-44.98 0-81.573 36.592-81.573 81.572z" fill="#7ed8f6"/><path d="m307.549 240.963c0-28.424-23.125-51.548-51.549-51.548l-20.016 51.549 20.016 51.548c28.424 0 51.549-23.125 51.549-51.549z" fill="#e1ebf0"/><path d="m204.451 240.963c0 28.424 23.125 51.549 51.549 51.549v-103.097c-28.424 0-51.549 23.124-51.549 51.548z" fill="#fff5f5"/></g></svg>