<svg id="Capa_1" enable-background="new 0 0 512 512" height="512" viewBox="0 0 512 512" width="512" xmlns="http://www.w3.org/2000/svg"><g><path d="m319.785 480.107v-63.785l-83.801-20.016 20.016 83.801z" fill="#b4d2d7"/><path d="m192.215 480.107h63.785v-83.801l-63.785 20.016z" fill="#e1ebf0"/><path d="m512 352.536-276.016-20.016 20.016 83.802h256z" fill="#e1ebf0"/><path d="m0 352.536v63.786h256v-83.802z" fill="#fff5f5"/><path d="m512 31.893h-256l-20.016 160.321 20.016 160.322h256z" fill="#323c3c"/><path d="m0 31.893h256v320.644h-256z" fill="#495959"/><path d="m482 61.893h-226l-20.016 130.322 20.016 130.321h226z" fill="#e1ebf0"/><path d="m30 61.893h226v260.644h-226z" fill="#fff5f5"/><path d="m256 95.678-20.016 83.802 68.661-20.016v-63.786z" fill="#4895ff"/><path d="m256 95.678h-48.645v63.786l48.645 20.016z" fill="#7ed8f6"/><path d="m256 288.751h48.645v-129.287h-48.645l-20.016 57.917z" fill="#515be0"/><path d="m207.355 159.464h48.645v129.287h-48.645z" fill="#4895ff"/><path d="m441.968 127.571h-97.291v80.59l48.646 20.016 48.645-20.016z" fill="#ff5b5b"/><path d="m344.677 208.161h97.291v80.59h-97.291z" fill="#e50058"/><path d="m167.323 159.464h-97.291v64.643l48.645 20.016 48.646-20.016z" fill="#00cc76"/><path d="m70.032 224.107h97.291v64.644h-97.291z" fill="#009986"/></g></svg>