<svg id="Capa_1" enable-background="new 0 0 512 512" height="512" viewBox="0 0 512 512" width="512" xmlns="http://www.w3.org/2000/svg"><g><path d="m256 0-20.016 342.295 114.088-20.016c48.58-31.064 80.786-85.48 80.786-147.42.001-96.572-78.286-174.859-174.858-174.859z" fill="#ffde55"/><path d="m81.141 174.859c0 61.94 32.207 116.356 80.786 147.42l94.073 20.016v-342.295c-96.572 0-174.859 78.287-174.859 174.859z" fill="#fff79f"/><path d="m186.899 127.966c-25.856 0-46.893 21.036-46.893 46.893s21.036 46.893 46.893 46.893c5.955 0 11.648-1.127 16.893-3.161v132.077h30v-175.809c0-25.857-21.036-46.893-46.893-46.893zm0 63.785c-9.314 0-16.893-7.578-16.893-16.893s7.578-16.893 16.893-16.893 16.893 7.578 16.893 16.893-7.578 16.893-16.893 16.893z" fill="#ffde55"/><path d="m325.101 127.966c-25.857 0-46.893 21.036-46.893 46.893v175.809h30v-132.077c5.245 2.033 10.938 3.161 16.893 3.161 25.856 0 46.893-21.036 46.893-46.893s-21.036-46.893-46.893-46.893zm0 63.785c-9.315 0-16.893-7.578-16.893-16.893s7.578-16.893 16.893-16.893c9.314 0 16.893 7.578 16.893 16.893s-7.578 16.893-16.893 16.893z" fill="#ffb655"/><path d="m319.785 448.215-83.801-20.016 20.016 83.801c35.228 0 63.785-28.558 63.785-63.785z" fill="#b4d2d7"/><path d="m256 512v-83.801l-63.785 20.016c0 35.227 28.557 63.785 63.785 63.785z" fill="#e1ebf0"/><path d="m357.25 386.929c10.582-6.165 17.714-17.629 17.714-30.733 0-15.89-10.479-29.376-24.889-33.917h-94.075l-20.016 84.666z" fill="#b4d2d7"/><path d="m256 322.279h-94.075c-14.41 4.54-24.889 18.027-24.889 33.917 0 13.105 7.133 24.568 17.714 30.733l101.25 20.016z" fill="#e1ebf0"/><path d="m357.25 386.929h-101.25l-20.016 33.143 20.016 33.142h83.412c19.603 0 35.552-15.948 35.552-35.552 0-13.104-7.132-24.567-17.714-30.733z" fill="#e1ebf0"/><path d="m154.75 386.929c-10.582 6.165-17.714 17.629-17.714 30.733 0 19.603 15.948 35.552 35.552 35.552h83.412v-66.285z" fill="#fff5f5"/></g></svg>