<svg id="Capa_1" enable-background="new 0 0 512 512" height="512" viewBox="0 0 512 512" width="512" xmlns="http://www.w3.org/2000/svg"><g><path d="m115.9 357.527v60.048h75.048v-60.048l-37.524-20.016z" fill="#e1ebf0"/><path d="m190.948 327.503-75.048-20.016v50.04h75.048z" fill="#b4d2d7"/><path d="m190.948 177.407-20.016 75.048 20.016 75.048c.833 0 84.305.657 167.491 57.438l.001-264.971c-82.778 56.5-166.679 57.434-167.492 57.437z" fill="#e1ebf0"/><path d="m75.048 177.407c-41.382 0-75.048 33.666-75.048 75.048s33.666 75.048 75.048 75.048h115.9v-150.096z" fill="#fff5f5"/><g fill="#00cc76"><path d="m451.928 237.455h60.072v30h-60.072z"/><path d="m418.225 156.09h60.072v30h-60.072z" transform="matrix(.707 -.707 .707 .707 10.314 367.08)"/><path d="m433.261 303.784h30v60.072h-30z" transform="matrix(.707 -.707 .707 .707 -104.754 414.742)"/></g><path d="m351.896 94.425h30v316.06h-30z" fill="#b4d2d7"/><path d="m115.924 237.455h30.024v30h-30.024z" fill="#495959"/></g></svg>