<svg id="Capa_1" enable-background="new 0 0 512 512" height="512" viewBox="0 0 512 512" width="512" xmlns="http://www.w3.org/2000/svg"><g><path d="m241 436.952h30v45.024h-30z" fill="#607882"/><path d="m256 451.952h225.976v-331.88l-245.992-20.016z" fill="#e1ebf0"/><path d="m30.024 120.072v331.88h225.976v-351.896z" fill="#fff5f5"/><path d="m0 60.048h45.024v30h-45.024z" fill="#607882"/><path d="m466.976 60.048h45.024v30h-45.024z" fill="#495959"/><path d="m256 180.12-20.016 125.908 125.908-20.016c0-58.483-47.41-105.892-105.892-105.892z" fill="#515be0"/><path d="m481.976 30.024h-30.024l-20.016 45.024 20.016 45.024h30.024z" fill="#87a0af"/><path d="m256 30.024-20.016 45.024 20.016 45.024h195.952v-90.048z" fill="#b4d2d7"/><path d="m256 30.024h-195.952l-20.016 45.024 20.016 45.024h195.952z" fill="#e1ebf0"/><path d="m30.024 30.024h30.024v90.048h-30.024z" fill="#b4d2d7"/><path d="m361.892 286.012h-105.892l22.5 52.946 52.377 21.931c19.162-19.163 31.015-45.636 31.015-74.877z" fill="#ffde55"/><path d="m256 391.904c29.241 0 55.714-11.852 74.877-31.015l-74.877-74.877-15 56.488z" fill="#009986"/><path d="m181.123 360.889c19.163 19.163 45.636 31.015 74.877 31.015v-105.892l-48.5 20.016z" fill="#00cc76"/><path d="m256 180.12c-58.483 0-105.892 47.409-105.892 105.892 0 29.241 11.852 55.714 31.015 74.877l74.877-74.877z" fill="#4895ff"/></g></svg>