<svg id="Capa_1" enable-background="new 0 0 512 512" height="512" viewBox="0 0 512 512" width="512" xmlns="http://www.w3.org/2000/svg"><g><path d="m512 125.562h-31.893l-20.016 96.107 20.016 96.107h31.893z" fill="#e1ebf0"/><path d="m448.215 125.562-20.016 100.082 20.016 92.132h31.892v-192.214z" fill="#fff5f5"/><path d="m319.786 125.562v-31.893c0-17.614-14.279-31.893-31.893-31.893h-31.893l-20.016 127.572 20.016 219.156 192.215-90.727z" fill="#a65d4e"/><path d="m256 408.504-19.94 28.226c-9.542 13.507-27.826 17.48-42.112 9.15l-130.163-75.89v-52.213l80.112-46.444z" fill="#ffdecf"/><path d="m191.356 61.777-63.785 63.785h-63.786l-20.016 96.107 20.016 96.107h63.786l128.429 90.728v-346.727z" fill="#c38778"/><path d="m256 125.562-20.016 29.122 20.016 34.663h68.389l123.826 128.429v-192.214z" fill="#ffcdbe"/><path d="m229.579 125.562-71.38 71.38c-12.455 12.455-12.455 32.648 0 45.103s32.648 12.455 45.103 0l52.698-52.698v-63.786h-26.421z" fill="#ffdecf"/><path d="m31.893 317.776h31.892v-192.214h-31.892l-20.016 96.107z" fill="#e1ebf0"/><path d="m0 125.562h31.893v192.215h-31.893z" fill="#fff5f5"/></g></svg>