<svg id="Capa_1" enable-background="new 0 0 512 512" height="512" viewBox="0 0 512 512" width="512" xmlns="http://www.w3.org/2000/svg"><g><path d="m256 0-20.016 256 20.016 256c141.385 0 256-114.615 256-256s-114.615-256-256-256z" fill="#ff5b5b"/><path d="m0 256c0 141.385 114.615 256 256 256v-512c-141.385 0-256 114.615-256 256z" fill="#ff8859"/><path d="m256 54.698-20.016 201.302 20.016 201.302c111.176 0 201.302-90.126 201.302-201.302s-90.126-201.302-201.302-201.302z" fill="#e1ebf0"/><path d="m54.698 256c0 111.176 90.126 201.302 201.302 201.302v-402.604c-111.176 0-201.302 90.126-201.302 201.302z" fill="#fff5f5"/><path d="m256 109.396-20.016 146.604 20.016 146.604c80.967 0 146.604-65.637 146.604-146.604s-65.637-146.604-146.604-146.604z" fill="#ff5b5b"/><path d="m109.396 256c0 80.967 65.637 146.604 146.604 146.604v-293.208c-80.967 0-146.604 65.637-146.604 146.604z" fill="#ff8859"/><path d="m256 164.094-20.016 91.906 20.016 91.906c50.758 0 91.906-41.148 91.906-91.906s-41.148-91.906-91.906-91.906z" fill="#e1ebf0"/><path d="m164.094 256c0 50.758 41.148 91.906 91.906 91.906v-183.812c-50.758 0-91.906 41.148-91.906 91.906z" fill="#fff5f5"/><path d="m256 218.792-20.016 37.208 20.016 37.208c20.549 0 37.208-16.659 37.208-37.208s-16.659-37.208-37.208-37.208z" fill="#ff5b5b"/><path d="m218.792 256c0 20.549 16.659 37.208 37.208 37.208v-74.416c-20.549 0-37.208 16.659-37.208 37.208z" fill="#ff8859"/></g></svg>