<svg id="Capa_1" enable-background="new 0 0 512.213 512.213" height="512" viewBox="0 0 512.213 512.213" width="512" xmlns="http://www.w3.org/2000/svg"><g><path d="m512.213 441.463-94.891-94.891-54.322 15.761-16.428 54.989 94.891 94.891z" fill="#4895ff"/><path d="m309.544 327.928h100.056v63.287h-100.056z" fill="#515be0" transform="matrix(.707 -.707 .707 .707 -148.939 359.572)"/><path d="m205.08 0-20.016 205.08 20.016 205.08c113.081 0 205.08-91.998 205.08-205.079s-91.999-205.081-205.08-205.081z" fill="#4895ff"/><path d="m0 205.08c0 113.081 91.999 205.079 205.08 205.079v-410.159c-113.081 0-205.08 91.999-205.08 205.08z" fill="#7ed8f6"/><path d="m205.08 30-20.016 175.08 20.016 175.08c96.539 0 175.08-78.54 175.08-175.079s-78.541-175.081-175.08-175.081z" fill="#e1ebf0"/><path d="m30 205.08c0 96.539 78.541 175.079 175.08 175.079v-350.159c-96.539 0-175.08 78.541-175.08 175.08z" fill="#fff5f5"/><path d="m190.08 250.116v28.527c-29.383-5.982-52.581-29.18-58.564-58.563h28.528v-30h-28.528c5.982-29.383 29.181-52.582 58.564-58.564v28.528h15v-90.072h-15v31.112c-45.955 6.598-82.398 43.041-88.996 88.997h-31.112v30h31.112c6.598 45.955 43.041 82.398 88.996 88.996v31.112h15v-90.071h-15z" fill="#607882"/><path d="m309.077 190.08c-6.598-45.956-43.041-82.399-88.997-88.997v-31.111h-15v90.072h15v-28.528c29.383 5.983 52.582 29.181 58.564 58.564h-28.528v30h28.528c-5.982 29.383-29.181 52.581-58.564 58.563v-28.527h-15v90.071h15v-31.111c45.956-6.598 82.399-43.041 88.997-88.996h31.112v-30z" fill="#495959"/></g></svg>