<svg id="Capa_1" enable-background="new 0 0 512 512" height="512" viewBox="0 0 512 512" width="512" xmlns="http://www.w3.org/2000/svg"><g><path d="m74.285 375.154-23.012 73.427 23.012 63.419h74.285v-62.561c-.001-41.027-33.259-74.285-74.285-74.285z" fill="#ffb655"/><path d="m74.285 375.154c-41.027 0-74.285 33.258-74.285 74.285v62.561h74.285z" fill="#ffde55"/><path d="m74.285 299.119-23.011 70.543 23.011 28.503c27.351 0 49.523-22.172 49.523-49.523 0-27.35-22.173-49.523-49.523-49.523z" fill="#a65d4e"/><path d="m24.762 348.642c0 27.351 22.172 49.523 49.523 49.523v-99.046c-27.351 0-49.523 22.173-49.523 49.523z" fill="#c38778"/><path d="m437.715 375.154-23.012 73.427 23.012 63.419h74.285v-62.561c0-41.027-33.258-74.285-74.285-74.285z" fill="#515be0"/><path d="m437.715 375.154c-41.026 0-74.285 33.258-74.285 74.285v62.561h74.285z" fill="#4895ff"/><path d="m399.555 100.071c-8.879-29.763-36.445-51.467-69.093-51.467-12.6-28.615-41.189-48.604-74.462-48.604l-20.016 139 20.016 126.827 49.529-40.504h92.45c34.598 0 62.646-28.048 62.646-62.646 0-34.07-27.202-61.767-61.07-62.606z" fill="#e1ebf0"/><path d="m256 0c-33.274 0-61.863 19.989-74.461 48.604-32.649 0-60.215 21.704-69.094 51.467-33.868.839-61.07 28.536-61.07 62.606 0 34.598 28.047 62.646 62.646 62.646h92.45l49.529 40.504z" fill="#fff5f5"/><path d="m256 412.684h-64.566c-16.101-48.684 15.043-64.041 15.043-64.041h49.523z" fill="#ffb655"/><path d="m256 375.154-23.011 73.427 23.011 63.419h74.285v-62.561c0-41.027-33.259-74.285-74.285-74.285z" fill="#009986"/><path d="m256 375.154c-41.026 0-74.285 33.258-74.285 74.285v62.561h74.285z" fill="#00cc76"/><path d="m256 299.119-20.016 69.539 69.539-20.016c0-27.35-22.172-49.523-49.523-49.523z" fill="#ff8859"/><path d="m256 299.119c-27.351 0-49.523 22.172-49.523 49.523l49.523 20.016z" fill="#ffb655"/><path d="m256 398.166c27.351 0 49.523-22.172 49.523-49.523h-49.523l-20.016 23.608z" fill="#ffcdbe"/><path d="m206.477 348.642c0 27.351 22.172 49.523 49.523 49.523v-49.523z" fill="#ffdecf"/><path d="m437.715 299.119c23.922 0 43.882 16.962 48.511 39.515l-68.527 20.016z" fill="#323c3c"/><path d="m437.715 299.119c-23.922 0-43.882 16.962-48.511 39.515l48.511 20.016z" fill="#495959"/><path d="m486.226 338.635c.663 3.232 1.012 6.579 1.012 10.008 0 27.351-22.172 49.523-49.523 49.523l-20.016-29.766 20.016-29.766h48.511z" fill="#e3a76f"/><path d="m389.205 338.635c-.663 3.232-1.012 6.579-1.012 10.008 0 27.351 22.172 49.523 49.523 49.523v-59.531z" fill="#f2d1a5"/></g></svg>