<svg id="Capa_1" enable-background="new 0 0 512 512" height="512" viewBox="0 0 512 512" width="512" xmlns="http://www.w3.org/2000/svg"><g><path d="m122.685 266.631h-60.009l-62.676 42.524v-212.619h224.107v63.786z" fill="#4895ff"/><path d="m389.315 266.631h60.009l62.676 42.524v-212.619h-224.107v63.786z" fill="#009986"/><path d="m256 160.322-20.016 123.201 20.016 131.941 42.775-42.524h90.325v-212.618z" fill="#ffde55"/><path d="m122.9 160.322v212.618h90.325l42.775 42.524v-255.142z" fill="#fff79f"/><path d="m341.299 219.738h-85.299l-10.008 15 10.008 15h85.299z" fill="#495959"/><path d="m341.299 283.523h-85.299l-10.008 15 10.008 15h85.299z" fill="#495959"/><g fill="#607882"><path d="m170.701 219.738h85.299v30h-85.299z"/><path d="m170.701 283.523h85.299v30h-85.299z"/></g></g></svg>