<svg id="Capa_1" enable-background="new 0 0 512 512" height="512" viewBox="0 0 512 512" width="512" xmlns="http://www.w3.org/2000/svg"><g><path d="m437.716 30.024h-181.716l-20.016 149.56 20.016 139.034h181.716z" fill="#e1ebf0"/><path d="m74.285 30.024h181.715v288.594h-181.715z" fill="#fff5f5"/><path d="m322.989 90.072h73.931v148.999h-73.931z" fill="#515be0"/><path d="m115.08 150.12h73.931v88.951h-73.931z" fill="#ffde55"/><path d="m74.285 345.13-23.012 73.427 23.011 63.419h74.285v-62.561c0-41.026-33.258-74.285-74.284-74.285z" fill="#ffb655"/><path d="m74.285 345.13c-41.027 0-74.285 33.259-74.285 74.285v62.561h74.285z" fill="#ffde55"/><path d="m74.285 269.095-23.011 70.543 23.011 28.503c27.351 0 49.523-22.172 49.523-49.523s-22.173-49.523-49.523-49.523z" fill="#a65d4e"/><path d="m24.762 318.619c0 27.351 22.172 49.523 49.523 49.523v-99.046c-27.351-.001-49.523 22.172-49.523 49.523z" fill="#c38778"/><path d="m256 345.13-23.011 73.427 23.011 63.419h74.285v-62.561c0-41.026-33.259-74.285-74.285-74.285z" fill="#e50058"/><path d="m256 345.13c-41.026 0-74.285 33.258-74.285 74.285v62.561h74.285z" fill="#ff5b5b"/><path d="m256 269.095-23.011 70.543 23.011 28.504c27.351 0 49.523-22.172 49.523-49.523s-22.172-49.524-49.523-49.524z" fill="#e3a76f"/><path d="m206.477 318.619c0 27.351 22.172 49.523 49.523 49.523v-99.046c-27.351-.001-49.523 22.172-49.523 49.523z" fill="#f2d1a5"/><path d="m292.966 120.096h-36.966l-20.016 59.488 20.016 59.487h36.966z" fill="#e50058"/><path d="m219.034 120.096h36.966v118.975h-36.966z" fill="#ff5b5b"/><path d="m437.715 368.142-59.531 20.016c-26.099-44.778 10.008-69.539 10.008-69.539h49.523z" fill="#c38778"/><path d="m437.716 345.13-23.012 73.427 23.011 63.419h74.285v-62.561c0-41.026-33.258-74.285-74.284-74.285z" fill="#515be0"/><path d="m437.715 345.13c-41.026 0-74.285 33.258-74.285 74.285v62.561h74.285z" fill="#4895ff"/><path d="m437.715 269.095-20.016 69.539 69.539-20.016c.001-27.35-22.171-49.523-49.523-49.523z" fill="#a65d4e"/><path d="m437.715 269.095c-27.351 0-49.523 22.172-49.523 49.523l49.523 20.016z" fill="#c38778"/><path d="m437.715 368.142c27.351 0 49.523-22.172 49.523-49.523h-49.523l-20.016 26.511z" fill="#ffcdbe"/><path d="m388.193 318.619c0 27.351 22.172 49.523 49.523 49.523v-49.523z" fill="#ffdecf"/></g></svg>