<svg id="Capa_1" enable-background="new 0 0 512 512" height="512" viewBox="0 0 512 512" width="512" xmlns="http://www.w3.org/2000/svg"><g><path d="m153.217 391.928h102.783v30h-102.783z" fill="#87a0af"/><path d="m256 391.928h102.783v30h-102.783z" fill="#607882"/><path d="m241 346.88h30v165.12h-30z" fill="#495959"/><path d="m61.065 411.237h169.692v29.999h-169.692z" fill="#607882" transform="matrix(.354 -.935 .935 .354 -304.379 411.885)"/><path d="m351.089 341.39h29.999v169.692h-29.999z" fill="#495959" transform="matrix(.935 -.354 .354 .935 -127.142 157.124)"/><path d="m512 0h-256l-20.016 180.94 20.016 180.94h256z" fill="#b4d2d7"/><path d="m0 0h256v361.88h-256z" fill="#e1ebf0"/><path d="m482 30h-226l-20.016 150.94 20.016 150.94h226z" fill="#e1ebf0"/><path d="m30 30h226v301.88h-226z" fill="#fff5f5"/><path d="m386.651 154.202-20.236 64.571 20.236 55.77h65.325v-55.016c0-36.078-29.247-65.325-65.325-65.325z" fill="#515be0"/><path d="m386.651 154.202c-36.078 0-65.325 29.247-65.325 65.325l-17.603 29.073 17.602 25.942h65.325z" fill="#4895ff"/><path d="m256 154.202-20.236 64.571 20.236 55.77h65.325v-55.016c0-36.078-29.247-65.325-65.325-65.325z" fill="#e50058"/><path d="m256 154.202c-36.078 0-65.325 29.247-65.325 65.325l-17.602 24.677 17.602 30.339h65.325z" fill="#ff5b5b"/><path d="m125.349 154.202-20.236 64.571 20.236 55.77h65.325v-55.016c.001-36.078-29.246-65.325-65.325-65.325z" fill="#ffb655"/><path d="m125.349 154.202c-36.078 0-65.325 29.247-65.325 65.325v55.016h65.325z" fill="#ffde55"/><path d="m125.349 87.337-20.236 62.035 20.236 25.065c24.052 0 43.55-19.498 43.55-43.55s-19.498-43.55-43.55-43.55z" fill="#a65d4e"/><path d="m81.799 130.887c0 24.052 19.498 43.55 43.55 43.55v-87.1c-24.052 0-43.55 19.498-43.55 43.55z" fill="#c38778"/><path d="m386.651 87.337c21.037 0 38.59 14.916 42.66 34.749l-60.262 17.602z" fill="#a65d4e"/><path d="m386.651 87.337c-21.037 0-38.59 14.916-42.66 34.749l42.66 17.602z" fill="#c38778"/><path d="m429.311 122.086c.583 2.843.89 5.786.89 8.801 0 24.052-19.498 43.55-43.55 43.55l-17.602-26.176 17.602-26.176h42.66z" fill="#ffcdbe"/><path d="m343.991 122.086c-.583 2.843-.89 5.786-.89 8.801 0 24.052 19.498 43.55 43.55 43.55v-52.351z" fill="#ffdecf"/><path d="m256 87.337c21.037 0 38.59 14.916 42.66 34.749l-60.262 17.602z" fill="#323c3c"/><path d="m256 87.337c-21.037 0-38.59 14.916-42.66 34.749l42.66 17.602z" fill="#495959"/><path d="m298.66 122.086c.583 2.843.89 5.786.89 8.801 0 24.052-19.498 43.55-43.55 43.55l-17.602-26.176 17.602-26.175z" fill="#e3a76f"/><path d="m213.34 122.086c-.583 2.843-.89 5.786-.89 8.801 0 24.052 19.498 43.55 43.55 43.55v-52.351z" fill="#f2d1a5"/></g></svg>