<svg id="Capa_1" enable-background="new 0 0 512 512" height="512" viewBox="0 0 512 512" width="512" xmlns="http://www.w3.org/2000/svg"><g><path d="m256 159.194-59.531 20.016c-26.099-44.778 10.008-69.539 10.008-69.539h49.523z" fill="#495959"/><path d="m256 136.182-20.016 94.301 94.301-20.016c0-41.026-33.259-74.285-74.285-74.285z" fill="#ffb655"/><path d="m256 136.182c-41.026 0-74.285 33.258-74.285 74.285l74.285 20.016z" fill="#ffde55"/><path d="m74.285 136.182-20.016 94.301 94.301-20.016c-.001-41.026-33.259-74.285-74.285-74.285z" fill="#e50058"/><path d="m74.285 136.182c-41.027 0-74.285 33.259-74.285 74.285l74.285 20.016z" fill="#ff5b5b"/><path d="m74.285 60.148-23.011 70.543 23.011 28.503c27.351 0 49.523-22.172 49.523-49.523s-22.173-49.523-49.523-49.523z" fill="#e3a76f"/><path d="m24.762 109.671c0 27.351 22.172 49.523 49.523 49.523v-99.046c-27.351 0-49.523 22.172-49.523 49.523z" fill="#f2d1a5"/><path d="m256 60.148-20.016 69.539 69.539-20.016c0-27.351-22.172-49.523-49.523-49.523z" fill="#323c3c"/><path d="m256 60.148c-27.351 0-49.523 22.172-49.523 49.523l49.523 20.016z" fill="#495959"/><path d="m256 159.194c27.351 0 49.523-22.172 49.523-49.523h-49.523l-20.016 26.511z" fill="#a65d4e"/><path d="m206.477 109.671c0 27.351 22.172 49.523 49.523 49.523v-49.523z" fill="#c38778"/><path d="m437.716 159.194-59.531 20.016c-26.099-44.778 10.008-69.539 10.008-69.539h49.523z" fill="#c38778"/><path d="m148.569 270.515-94.3 20.016 20.016-80.064h74.284z" fill="#323c3c"/><path d="m74.285 290.531-74.285-20.016v-60.048h74.285z" fill="#495959"/><path d="m330.285 270.515-94.301 20.016 20.016-80.064h74.285z" fill="#323c3c"/><path d="m256 290.531-74.285-20.016v-60.048h74.285z" fill="#495959"/><path d="m437.716 136.182-20.016 94.301 94.3-20.016c0-41.026-33.258-74.285-74.284-74.285z" fill="#515be0"/><path d="m437.715 136.182c-41.026 0-74.285 33.258-74.285 74.285l74.285 20.016z" fill="#4895ff"/><path d="m512 270.515-94.3 20.016 20.016-80.064h74.284z" fill="#323c3c"/><path d="m437.716 290.531-74.285-20.016v-60.048h74.285z" fill="#495959"/><path d="m512 310.636v-40.121h-256l-20.016 60.137z" fill="#b4d2d7"/><path d="m256 270.515h-256v40.121l256 20.016z" fill="#e1ebf0"/><path d="m256 310.636-20.016 70.608 20.016 70.609h256v-141.217z" fill="#e1ebf0"/><path d="m0 310.636h256v141.216h-256z" fill="#fff5f5"/><path d="m437.716 60.148-20.016 69.539 69.539-20.016c0-27.351-22.172-49.523-49.523-49.523z" fill="#a65d4e"/><path d="m437.716 60.148c-27.351 0-49.523 22.172-49.523 49.523l49.523 20.016z" fill="#c38778"/><path d="m437.716 159.194c27.351 0 49.523-22.172 49.523-49.523h-49.523l-20.016 26.511z" fill="#ffcdbe"/><path d="m388.193 109.671c0 27.351 22.172 49.523 49.523 49.523v-49.523z" fill="#ffdecf"/></g></svg>