<svg id="Capa_1" enable-background="new 0 0 512 512" height="512" viewBox="0 0 512 512" width="512" xmlns="http://www.w3.org/2000/svg"><g><path d="m437.02 74.98c-48.353-48.351-112.64-74.98-181.02-74.98l-20.016 256 20.016 256c68.38 0 132.667-26.629 181.02-74.98 48.351-48.353 74.98-112.64 74.98-181.02s-26.629-132.667-74.98-181.02z" fill="#b4d2d7"/><path d="m408.734 103.266c-40.796-40.798-95.038-63.266-152.734-63.266l-20.016 216 20.016 216c57.696 0 111.938-22.468 152.734-63.266 40.798-40.796 63.266-95.038 63.266-152.734s-22.468-111.938-63.266-152.734z" fill="#e1ebf0"/><path d="m74.98 74.98c-48.351 48.353-74.98 112.64-74.98 181.02s26.629 132.667 74.98 181.02c48.353 48.351 112.64 74.98 181.02 74.98v-512c-68.38 0-132.667 26.629-181.02 74.98z" fill="#e1ebf0"/><path d="m103.266 103.266c-40.798 40.796-63.266 95.038-63.266 152.734s22.468 111.938 63.266 152.734c40.796 40.798 95.038 63.266 152.734 63.266v-432c-57.696 0-111.938 22.468-152.734 63.266z" fill="#fff5f5"/><path d="m256 90-20.016 166 20.016 166c91.532 0 166-74.468 166-166s-74.468-166-166-166z" fill="#515be0"/><path d="m90 256c0 91.532 74.468 166 166 166v-332c-91.532 0-166 74.468-166 166z" fill="#4895ff"/><path d="m375.248 190.667h-50.443c-3.498-16.957-8.337-32.939-14.42-47.256-2.279-5.364-4.672-10.352-7.164-14.952 30.798 11.44 56.362 33.732 72.027 62.208z" fill="#4895ff"/><path d="m392 256c0 12.218-1.629 24.061-4.665 35.333h-57.881c1.235-11.589 1.887-23.423 1.887-35.333s-.653-23.744-1.887-35.333h57.881c3.036 11.272 4.665 23.115 4.665 35.333z" fill="#4895ff"/><path d="m120 256c0-12.218 1.629-24.061 4.665-35.333h57.881c-1.235 11.589-1.887 23.423-1.887 35.333s.653 23.744 1.887 35.333h-57.881c-3.036-11.272-4.665-23.115-4.665-35.333z" fill="#7ed8f6"/><path d="m208.78 128.459c-2.493 4.6-4.885 9.588-7.164 14.952-6.083 14.317-10.922 30.299-14.42 47.256h-50.443c15.663-28.476 41.228-50.768 72.027-62.208z" fill="#7ed8f6"/><path d="m136.753 321.333h50.443c3.498 16.957 8.337 32.939 14.42 47.256 2.279 5.364 4.672 10.352 7.164 14.952-30.799-11.44-56.364-33.732-72.027-62.208z" fill="#7ed8f6"/><g fill="#4895ff"><path d="m303.22 383.541c2.493-4.6 4.885-9.588 7.164-14.952 6.083-14.317 10.922-30.299 14.42-47.256h50.443c-15.664 28.476-41.228 50.768-72.027 62.208z"/><path d="m282.772 155.143c-11.28-26.553-22.908-35.143-26.772-35.143l-20.016 45 20.016 25.667h38.052c-2.952-12.811-6.739-24.837-11.28-35.524z"/><path d="m301.342 256c0-11.841-.732-23.724-2.111-35.333h-43.231l-20.016 35.333 20.016 35.333h43.231c1.379-11.609 2.111-23.492 2.111-35.333z"/><path d="m282.772 356.857c4.541-10.688 8.327-22.713 11.279-35.524h-38.051l-20.016 21.667 20.016 49c3.864 0 15.492-8.59 26.772-35.143z"/></g><path d="m229.228 356.857c11.28 26.553 22.908 35.143 26.772 35.143v-70.667h-38.052c2.952 12.811 6.739 24.837 11.28 35.524z" fill="#7ed8f6"/><path d="m212.769 220.667c-1.379 11.609-2.111 23.492-2.111 35.333s.732 23.724 2.111 35.333h43.231v-70.666z" fill="#7ed8f6"/><path d="m229.228 155.143c-4.541 10.688-8.327 22.713-11.279 35.524h38.051v-70.667c-3.864 0-15.492 8.59-26.772 35.143z" fill="#7ed8f6"/></g></svg>